HIERARCHY
ROOT root
{
	OFFSET 0.000000 0.000000 0.000000
	CHANNELS 6 Xposition Yposition Zposition Zrotation Yrotation Xrotation
	JOINT lhip
	{
		OFFSET 0.058581 -0.082280 -0.017664
		CHANNELS 3 Zrotation Yrotation Xrotation
		JOINT lknee
		{
			OFFSET 0.043451 -0.386469 0.008037
			CHANNELS 3 Zrotation Yrotation Xrotation
			JOINT lankle
			{
				OFFSET -0.014790 -0.426874 -0.037428
				CHANNELS 3 Zrotation Yrotation Xrotation
				JOINT ltoe
				{
					OFFSET 0.041054 -0.060286 0.122042
					CHANNELS 3 Zrotation Yrotation Xrotation
					End Site
					{
						OFFSET 0.000000 0.000000 0.000000
					}
				}
			}
		}
	}
	JOINT rhip
	{
		OFFSET -0.060310 -0.090513 -0.013543
		CHANNELS 3 Zrotation Yrotation Xrotation
		JOINT rknee
		{
			OFFSET -0.043257 -0.383688 -0.004843
			CHANNELS 3 Zrotation Yrotation Xrotation
			JOINT rankle
			{
				OFFSET 0.019056 -0.420046 -0.034562
				CHANNELS 3 Zrotation Yrotation Xrotation
				JOINT rtoe
				{
					OFFSET -0.034840 -0.062106 0.130323
					CHANNELS 3 Zrotation Yrotation Xrotation
					End Site
					{
						OFFSET 0.000000 0.000000 0.000000
					}
				}
			}
		}
	}
	JOINT lowerback
	{
		OFFSET 0.004439 0.124404 -0.038385
		CHANNELS 3 Zrotation Yrotation Xrotation
		JOINT upperback
		{
			OFFSET 0.004488 0.137956 0.026820
			CHANNELS 3 Zrotation Yrotation Xrotation
			JOINT chest
			{
				OFFSET -0.002265 0.056032 0.002855
				CHANNELS 3 Zrotation Yrotation Xrotation
				JOINT lowerneck
				{
					OFFSET -0.013390 0.211636 -0.033468
					CHANNELS 3 Zrotation Yrotation Xrotation
					JOINT upperneck
					{
						OFFSET 0.010113 0.088937 0.050410
						CHANNELS 3 Zrotation Yrotation Xrotation
						End Site
						{
							OFFSET 0.000000 0.000000 0.000000
						}
					}
				}
				JOINT lclavicle
				{
					OFFSET 0.071702 0.114000 -0.018898
					CHANNELS 3 Zrotation Yrotation Xrotation
					JOINT lshoulder
					{
						OFFSET 0.122921 0.045205 -0.019046
						CHANNELS 3 Zrotation Yrotation Xrotation
						JOINT lelbow
						{
							OFFSET 0.255332 -0.015649 -0.022946
							CHANNELS 3 Zrotation Yrotation Xrotation
							JOINT lwrist
							{
								OFFSET 0.265709 0.012698 -0.007375
								CHANNELS 3 Zrotation Yrotation Xrotation
								End Site
								{
									OFFSET 0.000000 0.000000 0.000000
								}
							}
						}
					}
				}
				JOINT rclavicle
				{
					OFFSET -0.082954 0.112472 -0.023707
					CHANNELS 3 Zrotation Yrotation Xrotation
					JOINT rshoulder
					{
						OFFSET -0.113228 0.046853 -0.008472
						CHANNELS 3 Zrotation Yrotation Xrotation
						JOINT relbow
						{
							OFFSET -0.260127 -0.014369 -0.031269
							CHANNELS 3 Zrotation Yrotation Xrotation
							JOINT rwrist
							{
								OFFSET -0.269108 0.006794 -0.006027
								CHANNELS 3 Zrotation Yrotation Xrotation
								End Site
								{
									OFFSET 0.000000 0.000000 0.000000
								}
							}
						}
					}
				}
			}
		}
	}
}
MOTION
Frames: 5
Frame Time: 0.033333
1.043639 0.378485 1.076911 -87.235778 2.663807 94.711168 12.092368 -1.216025 -7.811757 -3.959636 -14.830742 18.424927 -6.015496 4.334663 10.273948 0.000000 -0.000000 0.000000 -3.170251 2.692126 -33.622136 2.836149 -7.299585 37.532466 -0.756164 -6.302418 -13.929352 0.000000 -0.000000 0.000000 1.900126 -3.106156 12.840404 4.384695 -0.475279 9.076786 0.172805 -2.399955 3.512374 5.700430 0.832505 8.455694 2.308690 -4.163048 17.392060 -21.751609 5.047671 3.277903 -61.824860 -8.279903 8.475785 12.565360 -39.618848 3.021370 0.159096 -3.094906 -12.474154 19.377461 -2.948136 3.320090 55.516138 5.799903 6.779092 -20.922257 40.693796 -7.530787 5.818888 2.480381 -9.880653 
1.036490 0.386367 1.092158 -88.427866 1.004458 92.487805 8.797396 -2.425697 -6.227707 -4.642428 -16.869641 22.480740 -2.876494 4.472683 3.059188 0.000000 -0.000000 0.000000 -3.042592 0.800641 -27.936304 3.087743 -4.942863 32.602054 0.436877 -4.735696 -12.489459 0.000000 -0.000000 0.000000 0.548666 -0.871350 15.901331 3.697297 -0.742512 8.154555 0.619923 -2.439458 3.967457 5.965915 0.646713 8.210990 2.486161 -4.376659 17.502207 -21.013667 5.102417 3.140463 -61.896270 -7.783550 8.001088 11.438138 -39.602993 4.341505 0.606847 -2.978936 -13.425693 19.233134 -2.644697 2.544877 56.082679 5.562313 6.898193 -22.124148 41.301563 -8.858191 5.665473 2.448173 -9.271214 
1.029650 0.394551 1.105374 -89.821610 -0.065912 90.572755 5.958998 -2.898719 -5.598837 -3.517522 -13.775655 27.807164 2.082852 8.982001 -5.495381 0.000000 -0.000000 0.000000 -2.530544 0.100218 -22.699606 2.984145 -2.578989 27.676749 1.389803 -4.292697 -10.894320 0.000000 -0.000000 0.000000 -0.326022 1.087114 18.207153 3.228690 -0.714170 6.795230 0.835441 -2.292457 5.327053 6.089608 0.637566 8.322852 2.180846 -4.413200 16.966588 -20.416394 5.577795 3.106010 -61.503687 -8.011275 8.775254 10.039867 -39.311816 6.261936 1.563794 -2.548798 -15.038586 19.306884 -3.226552 1.642155 56.901328 5.845427 8.757273 -24.035728 41.296670 -9.938529 4.609085 2.229695 -10.310360 
1.020680 0.402551 1.116107 -92.039012 -1.597733 87.418567 2.713686 -1.384038 -3.225024 -2.048335 -10.350229 32.012683 3.973606 13.025227 -11.187560 0.000000 -0.000000 0.000000 -2.625712 -0.505827 -16.359107 2.436296 -0.068693 23.296519 2.666413 -2.991396 -9.463863 0.000000 -0.000000 0.000000 -1.524196 3.519293 21.648007 2.427384 -0.488281 5.544080 1.002590 -2.014594 6.495443 6.168635 0.910096 8.194910 2.264038 -4.533496 17.099920 -19.546845 5.472853 2.847463 -61.204358 -7.635423 8.793622 9.019490 -38.823647 7.287922 2.150616 -2.574118 -15.156357 19.412138 -3.375861 0.896155 57.880241 5.719863 9.647260 -24.888469 41.295785 -10.852600 4.103833 2.020797 -9.738415 
1.010989 0.408612 1.124594 -93.541070 -3.289059 84.447559 -0.812666 0.168894 -0.637472 -2.390319 -9.957864 33.893807 4.461808 14.357604 -14.850428 0.000000 -0.000000 0.000000 -3.527550 -1.647042 -10.640081 2.148061 2.142293 19.714441 3.581107 -1.773837 -8.792500 0.000000 -0.000000 0.000000 -2.529224 5.487962 24.595006 1.520701 -0.772354 4.933670 1.166528 -1.783518 6.803796 6.087644 0.769305 8.172632 2.553886 -4.874480 17.665284 -18.714986 5.198503 2.709675 -61.055738 -6.660462 7.629310 8.000798 -38.705618 8.464900 2.416616 -2.897736 -14.798686 19.199051 -3.059767 0.676139 59.100819 5.069916 9.349934 -24.902479 41.831210 -10.666168 4.300999 1.779638 -8.590707 
